<svg width="382" height="382" viewBox="0 0 382 382" fill="none" xmlns="http://www.w3.org/2000/svg">
<rect width="382" height="382" rx="94" fill="#0A0A0A"/>
<path d="M169 107C216.378 107 254 144.14 254 189C254 233.86 216.378 271 169 271C121.622 271 84 233.86 84 189C84 144.14 121.622 107 169 107Z" stroke="white" stroke-width="30"/>
<line x1="83" y1="189" x2="254" y2="189" stroke="white" stroke-width="40"/>
<line x1="314.499" y1="113.065" x2="255.065" y2="188.501" stroke="white" stroke-width="30" stroke-linecap="round"/>
<line x1="15" y1="-15" x2="111.036" y2="-15" transform="matrix(-0.618872 -0.785492 -0.785492 0.618872 312 290)" stroke="white" stroke-width="30" stroke-linecap="round"/>
<path d="M179.805 155.5C185.612 155.5 188.393 155.506 190.622 156.256C194.922 157.702 198.298 161.078 199.744 165.378C200.494 167.607 200.5 170.388 200.5 176.195V179.195C200.5 191.154 200.493 197.011 198.909 201.722C195.867 210.767 188.767 217.867 179.722 220.909C175.011 222.493 169.154 222.5 157.195 222.5C151.388 222.5 148.607 222.494 146.378 221.744C142.078 220.298 138.702 216.922 137.256 212.622C136.506 210.393 136.5 207.612 136.5 201.805V198.805C136.5 186.846 136.507 180.989 138.091 176.278C141.133 167.233 148.233 160.133 157.278 157.091C161.989 155.507 167.846 155.5 179.805 155.5Z" fill="white" stroke="white"/>
</svg>
