<svg width="261" height="198" viewBox="0 0 261 198" fill="none" xmlns="http://www.w3.org/2000/svg">
<path d="M100 15C147.378 15 185 52.14 185 97C185 141.86 147.378 179 100 179C52.6218 179 15 141.86 15 97C15 52.14 52.6218 15 100 15Z" stroke="white" stroke-width="30"/>
<line x1="14" y1="97" x2="185" y2="97" stroke="white" stroke-width="40"/>
<line x1="245.499" y1="21.0655" x2="186.065" y2="96.5007" stroke="white" stroke-width="30" stroke-linecap="round"/>
<line x1="15" y1="-15" x2="111.036" y2="-15" transform="matrix(-0.618872 -0.785492 -0.785492 0.618872 243 198)" stroke="white" stroke-width="30" stroke-linecap="round"/>
<path d="M110.805 63.5C116.612 63.5 119.393 63.5061 121.622 64.2559C125.922 65.702 129.298 69.0778 130.744 73.3779C131.494 75.6073 131.5 78.3885 131.5 84.1953V87.1953C131.5 99.1537 131.493 105.011 129.909 109.722C126.867 118.767 119.767 125.867 110.722 128.909C106.011 130.493 100.154 130.5 88.1953 130.5C82.3885 130.5 79.6073 130.494 77.3779 129.744C73.0778 128.298 69.702 124.922 68.2559 120.622C67.5061 118.393 67.5 115.612 67.5 109.805V106.805C67.5 94.8463 67.5065 88.9894 69.0908 84.2783C72.1326 75.2329 79.2329 68.1326 88.2783 65.0908C92.9894 63.5065 98.8463 63.5 110.805 63.5Z" fill="white" stroke="white"/>
</svg>
